<svg width="24" height="24" viewBox="0 0 24 24" fill="none" xmlns="http://www.w3.org/2000/svg">
<path fill-rule="evenodd" clip-rule="evenodd" d="M1.25754 1.4069C1.95205 0.712382 3.07809 0.712382 3.77261 1.4069L22.5931 20.2274C23.2876 20.9219 23.2876 22.0479 22.5931 22.7425C21.8986 23.437 20.7725 23.437 20.078 22.7425L1.25754 3.92197C0.563019 3.22745 0.563019 2.10142 1.25754 1.4069Z" fill="#034642"/>
<path fill-rule="evenodd" clip-rule="evenodd" d="M1.40689 22.5931C0.712371 21.8986 0.712371 20.7725 1.40689 20.078L20.2274 1.25753C20.9219 0.563016 22.0479 0.563016 22.7425 1.25753C23.437 1.95205 23.437 3.07809 22.7425 3.7726L3.92196 22.5931C3.22744 23.2876 2.10141 23.2876 1.40689 22.5931Z" fill="#034642"/>
</svg>
