<svg width="16" height="16" viewBox="0 0 16 16" fill="none" xmlns="http://www.w3.org/2000/svg">
<path fill-rule="evenodd" clip-rule="evenodd" d="M14 4C14 4.55228 13.5523 5 13 5H3C2.44772 5 2 4.55228 2 4V4C2 3.44772 2.44772 3 3 3H13C13.5523 3 14 3.44772 14 4V4ZM14 8C14 8.55228 13.5523 9 13 9H3C2.44772 9 2 8.55228 2 8V8C2 7.44772 2.44772 7 3 7H13C13.5523 7 14 7.44772 14 8V8ZM2 12C2 12.5523 2.44772 13 3 13H13C13.5523 13 14 12.5523 14 12V12C14 11.4477 13.5523 11 13 11H3C2.44772 11 2 11.4477 2 12V12Z" fill="white"/>
</svg>
