<svg width="512" height="512" viewBox="0 0 512 512" fill="none" xmlns="http://www.w3.org/2000/svg">
<path d="M244.202 288.411C244.202 344.891 244.316 340.812 243.93 342.528C234.168 385.496 201.022 400.946 157.499 400.946C140.604 400.946 127.671 398.414 126.498 398.182C121.969 397.267 118.435 393.852 117.487 389.492C116.928 386.937 104.282 326.646 136.93 295.153C145.599 286.793 157.118 280.845 171.178 277.466C173.4 276.943 232.801 276.978 234.966 277.413C240.341 278.515 244.202 283.092 244.202 288.411V288.411Z" fill="#70DD59"/>
<path d="M394.22 389.492C393.272 393.852 389.738 397.268 385.209 398.182C384.036 398.414 371.095 400.946 354.208 400.946C333.003 400.946 305.567 396.96 287.383 379.431C277.844 370.224 271.249 357.811 267.777 342.529C267.598 341.735 267.505 340.933 267.505 340.124V288.411C267.505 281.914 273.041 277.137 279.351 277.137H337.71C341.406 277.137 360.993 281.859 374.777 295.154C407.425 326.646 394.779 386.937 394.22 389.492V389.492Z" fill="#2BB65E"/>
<path d="M230.872 148.751L222.087 110.247C220.655 103.973 224.581 97.7271 230.855 96.2955C237.127 94.8655 243.375 98.7897 244.806 105.063L253.591 143.567C255.022 149.841 251.097 156.087 244.823 157.518C238.549 158.949 232.303 155.025 230.872 148.751V148.751Z" fill="#D66823"/>
<path d="M266.885 157.518C260.611 156.087 256.685 149.841 258.116 143.567L266.902 105.063C268.333 98.7897 274.583 94.8608 280.852 96.2955C287.126 97.7271 291.051 103.973 289.621 110.247L280.835 148.751C279.399 155.045 273.131 158.948 266.885 157.518Z" fill="#9A4916"/>
<path d="M244.202 222.53V277.268C244.202 283.393 238.982 288.365 232.55 288.365H145.583C96.7396 288.365 57 250.517 57 203.999V149.261C57 143.129 62.2199 138.164 68.6516 138.164H155.619C204.462 138.164 244.202 176.012 244.202 222.53Z" fill="#FF7B94"/>
<path d="M454.707 149.261V203.999C454.707 250.517 414.967 288.365 366.124 288.365H279.157C272.725 288.365 267.505 283.393 267.505 277.268V222.53C267.505 176.013 307.245 138.164 356.088 138.164H443.056C449.487 138.164 454.707 143.129 454.707 149.261V149.261Z" fill="#FE4566"/>
<path d="M173.864 354.405C180.299 354.405 185.515 349.189 185.515 342.754C185.515 336.319 180.299 331.102 173.864 331.102C167.429 331.102 162.212 336.319 162.212 342.754C162.212 349.189 167.429 354.405 173.864 354.405Z" fill="#2BB65E"/>
<path d="M337.843 354.405C344.278 354.405 349.495 349.189 349.495 342.754C349.495 336.319 344.278 331.102 337.843 331.102C331.408 331.102 326.192 336.319 326.192 342.754C326.192 349.189 331.408 354.405 337.843 354.405Z" fill="#008F61"/>
<path d="M196.415 239.929C187.188 258.412 159.667 260.621 134.964 248.279C110.157 235.867 95.5891 212.495 104.787 194.1C113.959 175.769 141.357 173.309 166.237 185.757C191.185 198.222 205.557 221.66 196.415 239.929V239.929Z" fill="#FFC5CE"/>
<path d="M376.743 248.28C351.305 260.988 324.275 257.896 315.292 239.929C310.655 230.662 311.983 219.189 318.927 208.462C331.03 189.785 357.537 176.618 379.554 178.137C392.309 179.015 402.283 184.833 406.92 194.1C416.019 212.299 401.822 235.731 376.743 248.28V248.28Z" fill="#FFA1B2"/>
<path d="M282.854 151.68V252.443L276.102 264.094L282.854 275.746V299.049L276.83 310.701L282.854 322.352V388.999C282.854 403.913 270.768 416 255.854 416C240.94 416 228.853 403.913 228.853 388.999V322.352L237.839 310.701L228.853 299.049V275.746L235.351 264.094L228.853 252.443V151.68C228.853 136.766 240.94 124.679 255.854 124.679C270.768 124.679 282.854 136.766 282.854 151.68Z" fill="#F09B00"/>
<path d="M282.854 151.68V252.443L276.102 264.094L282.854 275.746V299.049L276.829 310.701L282.854 322.352V388.999C282.854 403.913 270.768 416 255.854 416V124.679C270.768 124.679 282.854 136.766 282.854 151.68V151.68Z" fill="#D66823"/>
<path d="M228.853 252.443H282.854V275.746H228.853V252.443Z" fill="#D66823"/>
<path d="M228.853 299.049H282.854V322.352H228.853V299.049Z" fill="#D66823"/>
<path d="M255.854 252.443H282.854V275.746H255.854V252.443Z" fill="#9A4916"/>
<path d="M255.854 299.049H282.854V322.352H255.854V299.049Z" fill="#9A4916"/>
</svg>
