<svg width="512" height="512" viewBox="0 0 512 512" fill="none" xmlns="http://www.w3.org/2000/svg">
<path d="M195.499 164.346C166.137 171.498 143.643 187.261 137.862 216.664C136.276 224.726 124.833 225.09 122.729 217.156C118.601 201.568 106.042 148.001 117.84 113.173C119.026 109.671 122.527 107.491 126.183 107.958C128.125 108.206 173.923 114.468 200.056 152.393C203.138 156.862 200.79 163.065 195.499 164.346V164.346Z" fill="#F2E4E4"/>
<path d="M390.002 218.367C387.828 226.567 376.126 226.05 374.516 217.864C368.6 187.774 345.571 171.639 315.53 164.321C310.119 163.011 307.709 156.666 310.866 152.088C337.611 113.275 384.48 106.867 386.462 106.612C390.215 106.136 393.792 108.361 395.006 111.949C407.079 147.594 394.226 202.414 390.002 218.367Z" fill="#D8C5C5"/>
<path d="M115.196 227.857C110.212 209.044 95.0618 144.397 109.297 102.367C110.729 98.1406 114.946 95.5106 119.367 96.0762C121.705 96.3756 176.977 103.934 208.515 149.699C212.246 155.116 209.374 162.58 203.012 164.128C167.594 172.749 140.427 191.782 133.457 227.262C132.615 231.547 128.927 234.684 124.562 234.826C120.121 234.959 116.298 232.019 115.196 227.857V227.857ZM124.865 116.252C119.558 139.834 122.79 170.317 126.791 193.04C139.936 171.463 160.87 157.924 184.718 149.901C164.621 128.154 137.93 119.405 124.865 116.252V116.252Z" fill="#81A1B1"/>
<path d="M377.646 227.262C370.678 191.792 343.522 172.752 308.091 164.128C301.712 162.575 298.866 155.101 302.588 149.699C334.127 103.934 389.398 96.3756 391.736 96.0763C396.156 95.5131 400.374 98.1413 401.806 102.368C416.042 144.399 400.891 209.044 395.907 227.857C393.363 237.464 379.562 237.016 377.646 227.262V227.262ZM326.395 149.904C350.184 157.909 371.144 171.426 384.314 193.04C388.313 170.324 391.544 139.855 386.244 116.275C373.167 119.466 346.436 128.272 326.395 149.904Z" fill="#5A7983"/>
<path d="M393.927 283.562C379.334 346.478 342.554 401.741 279.652 413.737L279.589 413.749C279.277 413.818 278.971 413.874 278.658 413.937C263.608 416.687 248.286 416.689 233.289 413.937C169.611 402.282 132.665 346.626 118.002 283.562C100.054 206.293 135.902 157.059 209.089 143.737C259.896 134.143 342.108 137.59 378.883 184.606C398.345 209.481 403.408 242.769 393.927 283.562V283.562Z" fill="#ADD3D8"/>
<path d="M393.927 283.562C379.334 346.478 342.554 401.741 279.652 413.737L279.589 413.749C279.277 413.818 278.971 413.874 278.658 413.937C270.996 415.337 263.264 416.024 255.552 415.999V139.369C353.791 139.369 416.561 186.178 393.927 283.562V283.562Z" fill="#81A1B1"/>
<path d="M264.927 139.613V212.956C264.927 218.131 260.727 222.331 255.552 222.331C250.402 222.331 246.177 218.156 246.177 212.956V139.644C254.574 139.262 258.032 139.325 264.927 139.613V139.613Z" fill="#81A1B1"/>
<path d="M227.427 141.044V194.207C227.427 199.382 223.227 203.582 218.052 203.582C212.871 203.582 208.677 199.382 208.677 194.207V143.819C209.302 143.677 217.281 142.138 227.427 141.044Z" fill="#81A1B1"/>
<path d="M283.677 141.044V194.207C283.677 199.382 287.877 203.582 293.052 203.582C298.233 203.582 302.427 199.382 302.427 194.207V143.819C301.802 143.677 293.823 142.138 283.677 141.044Z" fill="#5A7983"/>
<path d="M183.901 275.996C189.078 275.996 193.276 271.799 193.276 266.621C193.276 261.444 189.078 257.246 183.901 257.246C178.723 257.246 174.526 261.444 174.526 266.621C174.526 271.799 178.723 275.996 183.901 275.996Z" fill="#525E63"/>
<path d="M328.024 275.996C333.202 275.996 337.399 271.799 337.399 266.621C337.399 261.444 333.202 257.246 328.024 257.246C322.847 257.246 318.649 261.444 318.649 266.621C318.649 271.799 322.847 275.996 328.024 275.996Z" fill="#414C51"/>
<path d="M113.113 376.919C109.648 376.919 106.317 374.991 104.688 371.671C102.409 367.022 104.329 361.405 108.978 359.126L169.26 329.564C173.909 327.284 179.526 329.205 181.805 333.854C184.084 338.502 182.164 344.119 177.516 346.399C111.936 378.557 116.159 376.919 113.113 376.919V376.919Z" fill="#5A7983"/>
<path d="M105.364 324.617C100.776 324.617 96.7663 321.246 96.0963 316.572C95.3607 311.447 98.92 306.696 104.045 305.961L170.505 296.427C175.624 295.696 180.382 299.25 181.116 304.376C181.852 309.501 178.293 314.252 173.168 314.987C102.129 325.177 106.361 324.617 105.364 324.617V324.617Z" fill="#5A7983"/>
<path d="M398.887 376.919C395.839 376.919 399.962 378.508 334.484 346.399C329.835 344.119 327.914 338.502 330.194 333.854C332.474 329.205 338.092 327.285 342.739 329.564L403.022 359.126C407.671 361.405 409.591 367.022 407.311 371.671C405.683 374.991 402.352 376.919 398.887 376.919V376.919Z" fill="#525E63"/>
<path d="M405.292 324.521L338.832 314.986C333.707 314.251 330.148 309.501 330.884 304.375C331.619 299.25 336.366 295.695 341.495 296.426L407.955 305.961C413.08 306.696 416.639 311.446 415.904 316.571C415.164 321.729 410.378 325.256 405.292 324.521V324.521Z" fill="#525E63"/>
<path d="M305.146 330.924C299.964 330.924 295.771 335.118 295.771 340.299C295.771 348.612 289.002 355.374 280.689 355.374H280.452C272.139 355.374 265.377 348.612 265.377 340.299V334.549C277.049 330.782 285.981 318.602 289.002 309.456C291.921 300.631 288.427 290.912 280.508 285.831C273.439 281.287 264.983 278.643 256.002 278.643H255.996C246.914 278.643 238.289 281.312 230.933 286.187C223.552 291.081 220.189 300.356 222.764 308.743C225.707 318.366 234.878 330.774 246.627 334.556V340.299C246.627 348.282 240.279 355.374 231.308 355.374C222.996 355.374 216.233 348.612 216.233 340.299C216.233 335.118 212.033 330.924 206.858 330.924C201.677 330.924 197.483 335.118 197.483 340.299C197.483 358.949 212.658 374.124 231.308 374.124H231.546C241.158 374.124 249.833 370.093 256.002 363.637C276.939 385.571 314.521 370.861 314.521 340.299C314.521 335.118 310.321 330.924 305.146 330.924V330.924Z" fill="#525E63"/>
<path d="M314.521 340.299C314.521 370.871 276.93 385.562 256.002 363.637V278.644C264.983 278.644 273.439 281.287 280.508 285.831C288.427 290.912 291.921 300.631 289.002 309.456C285.999 318.551 277.109 330.763 265.377 334.55V340.3C265.377 348.612 272.139 355.375 280.452 355.375H280.689C289.002 355.375 295.771 348.612 295.771 340.3C295.771 335.119 299.964 330.925 305.146 330.925C310.321 330.924 314.521 335.118 314.521 340.299V340.299Z" fill="#414C51"/>
<path d="M264.927 139.613V212.956C264.927 218.131 260.727 222.331 255.552 222.331V139.369C257.884 139.369 262.182 139.498 264.927 139.613V139.613Z" fill="#5A7983"/>
</svg>
