<svg width="512" height="512" viewBox="0 0 512 512" fill="none" xmlns="http://www.w3.org/2000/svg">
<path d="M359.625 236.185V392.602C359.625 411.474 335.043 417.696 325.938 403.564L317.444 390.014L301.125 409.377C293.432 418.506 279.446 417.935 272.525 409.283C272.228 408.921 255.919 389.051 255.625 388.689L238.338 408.664C230.851 417.479 217.266 417.414 209.856 408.608L194.181 390.014C185.058 404.569 185.521 403.896 184.913 404.627C173.708 417.916 152 409.976 152 392.602V236.185C152 188.546 184.219 147.151 230.35 135.526C234.6 134.451 239.025 136.47 241.006 140.376C245.196 148.612 241.986 142.301 255.813 169.483L270.619 140.376C272.6 136.47 277.025 134.458 281.275 135.52C325.405 146.644 359.625 186.683 359.625 236.185V236.185Z" fill="#F2E4E4"/>
<path d="M359.625 236.185V392.602C359.625 411.474 335.043 417.696 325.938 403.564L317.444 390.014L301.125 409.377C293.432 418.506 279.446 417.935 272.525 409.283L255.813 388.92V169.483L270.619 140.376C272.6 136.47 277.025 134.458 281.275 135.52C325.405 146.644 359.625 186.683 359.625 236.185V236.185Z" fill="#D8C5C5"/>
<path d="M264.019 319.606L255.813 304.768L247.606 319.606C245.588 323.262 246.231 327.819 249.181 330.775L255.813 337.4L262.444 330.775C265.394 327.819 266.038 323.262 264.019 319.606Z" fill="#FF1200"/>
<path d="M300.938 338.269C289.643 349.564 270.093 351.68 255.813 337.4L262.444 330.775C265.394 327.819 266.038 323.263 264.019 319.607L255.813 304.768L269.688 279.686C272.706 274.232 280.13 273.196 284.519 277.598L300.938 294.012C313.138 306.212 313.138 326.069 300.938 338.269Z" fill="#FF1200"/>
<path d="M264.019 319.606L255.813 304.768L247.606 319.606C245.588 323.262 246.231 327.819 249.181 330.775L255.813 337.4L262.444 330.775C265.394 327.819 266.038 323.262 264.019 319.606Z" fill="#FF5600"/>
<path d="M249.181 330.775L255.813 337.4C249.431 343.781 242.039 347.419 232.819 347.419C224.8 347.419 216.788 344.369 210.688 338.268C198.488 326.068 198.488 306.212 210.688 294.011L227.106 277.598C229.188 275.51 232.125 274.529 235.044 274.942C237.956 275.354 240.513 277.11 241.938 279.685L255.813 304.767L247.606 319.605C245.588 323.262 246.231 327.818 249.181 330.775V330.775Z" fill="#FF5600"/>
<path d="M293.663 279.448L264.081 334.813C260.553 341.41 251.074 341.413 247.544 334.813L217.963 279.449C213.669 271.424 216.175 261.598 223.788 256.605L246.231 241.885C251.991 238.108 259.515 238.03 265.394 241.885L287.838 256.605C295.45 261.598 297.957 271.423 293.663 279.448V279.448Z" fill="#FFB22A"/>
<path d="M287.744 148.07C287.744 148.076 287.738 148.083 287.738 148.089C282.475 158.419 286.733 150.052 264.169 194.409C260.703 201.218 250.934 201.241 247.456 194.409L223.888 148.089C216.313 133.176 219.931 115.244 232.694 104.463C239.156 99 247.363 96 255.813 96C264.263 96 272.469 99 278.931 104.456C291.694 115.244 295.313 133.176 287.744 148.07V148.07Z" fill="#FF5600"/>
<path d="M215.316 240.735C220.493 240.735 224.691 236.537 224.691 231.36C224.691 226.182 220.493 221.985 215.316 221.985C210.138 221.985 205.941 226.182 205.941 231.36C205.941 236.537 210.138 240.735 215.316 240.735Z" fill="#525E63"/>
<path d="M296.31 240.735C301.487 240.735 305.685 236.537 305.685 231.36C305.685 226.182 301.487 221.985 296.31 221.985C291.132 221.985 286.935 226.182 286.935 231.36C286.935 236.537 291.132 240.735 296.31 240.735Z" fill="#414C51"/>
<path d="M287.744 148.07C287.744 148.076 287.738 148.083 287.738 148.089C282.475 158.419 286.733 150.052 264.169 194.409C262.569 197.553 259.338 199.534 255.813 199.534V96C264.263 96 272.469 99 278.931 104.456C291.694 115.244 295.313 133.176 287.744 148.07V148.07Z" fill="#FF1200"/>
<path d="M293.663 279.448L264.081 334.813C262.45 337.863 259.275 339.769 255.813 339.769V239.023C259.15 239.023 262.488 239.979 265.394 241.885L287.838 256.605C295.45 261.598 297.957 271.423 293.663 279.448V279.448Z" fill="#F09B00"/>
</svg>
