<svg width="512" height="512" viewBox="0 0 512 512" fill="none" xmlns="http://www.w3.org/2000/svg">
<path d="M330.051 303.609C313.7 300.797 299.905 290.076 293.148 274.93C290.926 269.951 293.162 264.112 298.142 261.891C303.125 259.669 308.96 261.906 311.181 266.885C315.249 276.002 323.553 282.455 333.397 284.148C338.771 285.072 342.379 290.178 341.455 295.551C340.531 300.926 335.423 304.532 330.051 303.609Z" fill="#D8C5C5"/>
<path d="M171.908 295.268C170.985 289.894 174.592 284.789 179.966 283.865C189.784 282.177 198.067 275.741 202.124 266.647C204.346 261.668 210.183 259.43 215.163 261.654C220.143 263.875 222.379 269.714 220.157 274.693C213.41 289.815 199.636 300.519 183.312 303.325C177.928 304.249 172.831 300.634 171.908 295.268V295.268Z" fill="#F2E4E4"/>
<path d="M371.713 251.266C351.256 264.366 325.034 265.708 301.705 249.95C299.441 248.416 297.914 246.014 297.486 243.315L276.989 114.269C276.324 110.07 278.417 105.916 282.189 103.961C292.786 98.4589 320.728 87.75 351.413 107.055C362.373 113.953 382.869 133.534 418.308 187.658C435.724 214.257 418.762 256.014 371.713 251.266V251.266Z" fill="#5A7983"/>
<path d="M236.021 114.269L215.525 243.315C215.097 246.014 213.57 248.416 211.305 249.95C188.168 265.579 161.956 264.495 141.298 251.266C114.059 253.998 95.4863 241.196 89.7199 221.838C86.2577 210.241 88.0744 197.781 94.7024 187.658C130.141 133.534 150.637 113.953 161.597 107.055C192.283 87.75 220.225 98.4589 230.822 103.961C234.593 105.916 236.686 110.07 236.021 114.269V114.269Z" fill="#81A1B1"/>
<path d="M327.573 230.052L323.354 234.403C314.185 243.838 314.63 254.574 314.402 256.236C312.616 269.393 311.22 290.99 292.148 301.849L289.022 328.947C288.956 329.783 288.883 330.869 288.87 331.277C287.94 378.05 250.147 415.735 203.743 416H203.236C180.481 416 159.063 407.154 142.877 391.061C126.566 374.849 117.589 353.293 117.589 330.355V326.788C117.589 314.142 131.239 306.182 142.252 312.439L150.664 317.218L158.635 312.604C169.676 306.226 183.41 314.206 183.41 326.893C183.41 329.929 182.759 337.77 189.597 344.493C197.712 352.468 209.975 351.767 217.367 344.243C219.545 342.032 222.317 337.997 221.263 328.512C221.25 328.361 221.237 328.21 221.224 328.058L219.486 300.861C204.34 291.166 201.458 273.605 200.437 267.405C198.469 255.424 198.548 256.095 198.522 255.235C198.067 241.705 190.112 234.872 185.424 230.039C163.743 207.722 158.706 172.478 176.571 145.829L193.415 120.713C202.413 107.279 218.5 100.539 234.389 103.54C258.385 108.089 254.533 108.112 278.615 103.54C294.511 100.539 310.597 107.279 319.596 120.713L336.439 145.836C339.967 151.095 342.686 156.828 344.516 162.87C351.227 184.928 345.828 211.288 327.573 230.052V230.052Z" fill="#ADD3D8"/>
<path d="M327.573 230.052L323.354 234.403C314.185 243.838 314.63 254.574 314.402 256.236C312.616 269.393 311.22 290.99 292.148 301.849L289.022 328.947C288.956 329.783 288.883 330.869 288.87 331.277C288.344 357.762 276.007 381.279 257.079 396.735V106.904C262.269 106.84 264.352 106.248 278.615 103.54C294.512 100.539 310.598 107.279 319.596 120.713C337.143 146.885 341.011 151.297 344.516 162.87C351.227 184.928 345.828 211.288 327.573 230.052V230.052Z" fill="#81A1B1"/>
<path d="M216.394 195.172C221.847 195.172 226.267 190.752 226.267 185.299C226.267 179.846 221.847 175.426 216.394 175.426C210.941 175.426 206.521 179.846 206.521 185.299C206.521 190.752 210.941 195.172 216.394 195.172Z" fill="#525E63"/>
<path d="M294.997 195.172C300.449 195.172 304.87 190.752 304.87 185.299C304.87 179.846 300.449 175.426 294.997 175.426C289.544 175.426 285.124 179.846 285.124 185.299C285.124 190.752 289.544 195.172 294.997 195.172Z" fill="#414C51"/>
</svg>
