<svg width="512" height="512" viewBox="0 0 512 512" fill="none" xmlns="http://www.w3.org/2000/svg">
<path d="M241.961 406.53C241.961 411.71 237.761 415.902 232.586 415.902H128.611C107.469 415.902 98.9407 388.645 116.336 376.608C120.986 373.391 126.355 370.516 132.311 368.061C109.98 336.627 106.093 310.948 121.386 295.652C135.893 281.137 151.261 281.394 161.599 284.162C171.861 286.905 178.999 292.634 180.324 293.753C182.124 295.277 183.286 297.426 183.58 299.763C186.043 319.713 191.618 349.604 204.218 378.688C209.074 389.91 220.211 397.158 232.586 397.158C237.761 397.158 241.961 401.357 241.961 406.53Z" fill="#2BB65E"/>
<path d="M383.299 415.903H279.324C274.149 415.903 269.949 411.71 269.949 406.531C269.949 401.358 274.149 397.159 279.324 397.159C291.749 397.159 302.88 389.924 307.68 378.721C317.655 355.784 324.787 328.499 328.33 299.764C328.618 297.427 329.78 295.278 331.587 293.754C342.28 284.719 368.362 273.485 390.524 295.653C405.818 310.948 401.924 336.634 379.599 368.062C385.562 370.524 390.924 373.391 395.574 376.609C412.959 388.638 404.455 415.903 383.299 415.903V415.903Z" fill="#008F61"/>
<path d="M324.912 386.118C316.91 404.695 298.539 415.903 279.324 415.903H232.586C212.471 415.903 194.679 403.853 187.005 386.137C173.524 355.003 167.58 323.232 164.968 302.063C163.011 286.143 162.486 272.254 162.349 265.387C162.199 257.742 170.823 253.13 177.099 257.521C198.024 272.148 226.03 280.208 255.955 280.208H255.961C285.805 280.208 313.743 272.185 334.649 257.621C340.845 253.324 349.305 257.712 349.387 265.218C349.772 303.624 339.62 352.701 324.912 386.118V386.118Z" fill="#70DD59"/>
<path d="M319.88 395.09C310.201 408.682 294.659 415.903 279.324 415.903H255.961V280.207C285.805 280.207 313.743 272.185 334.649 257.621C340.845 253.324 349.305 257.712 349.387 265.218C349.91 317.333 331.282 379.01 319.88 395.09V395.09Z" fill="#2BB65E"/>
<path d="M297.705 360.063V412.391C286.165 416.92 282.788 415.902 232.586 415.902C226.095 415.902 219.841 414.638 214.205 412.391V360.063C214.205 337.052 232.936 318.326 255.955 318.326H255.961C278.98 318.333 297.705 337.052 297.705 360.063Z" fill="#F2E4E4"/>
<path d="M297.705 360.063V412.391C286.706 416.708 281.05 415.902 255.961 415.902V318.327C278.98 318.333 297.705 337.052 297.705 360.063Z" fill="#D8C5C5"/>
<path d="M389.229 161.907C377.128 189.049 389.297 202.863 381.141 227.606C380.122 230.699 304.241 288.312 255.96 288.312H255.953C201.11 288.312 131.603 230.099 130.566 226.775C122.809 202.001 134.703 188.806 122.697 161.952C108.903 131.06 131.703 96.6529 164.584 96.0092C177.709 95.7467 190.416 101.057 199.46 110.555C205.047 116.415 213.622 119.052 221.841 117.44C232.903 115.265 244.385 114.166 255.953 114.166H255.96C267.528 114.166 279.003 115.265 290.066 117.44C298.285 119.052 306.853 116.422 312.428 110.561C321.497 101.045 334.228 95.7592 347.372 96.0092C372.653 96.5342 393.241 117.534 393.266 142.819C393.272 149.455 391.916 155.878 389.229 161.907V161.907Z" fill="#70DD59"/>
<path d="M389.229 161.907C377.129 189.049 389.297 202.863 381.141 227.606C380.122 230.699 304.241 288.312 255.96 288.312V114.166C267.528 114.166 279.003 115.265 290.066 117.44C298.285 119.052 306.853 116.422 312.428 110.561C321.497 101.045 334.228 95.7591 347.372 96.0091C372.653 96.5341 393.241 117.533 393.266 142.819C393.272 149.455 391.916 155.878 389.229 161.907V161.907Z" fill="#2BB65E"/>
<path d="M168.286 155.127C173.464 155.127 177.661 150.932 177.661 145.756C177.661 140.58 173.464 136.384 168.286 136.384C163.109 136.384 158.911 140.58 158.911 145.756C158.911 150.932 163.109 155.127 168.286 155.127Z" fill="#525E63"/>
<path d="M343.624 155.127C348.802 155.127 352.999 150.932 352.999 145.756C352.999 140.58 348.802 136.384 343.624 136.384C338.446 136.384 334.249 140.58 334.249 145.756C334.249 150.932 338.446 155.127 343.624 155.127Z" fill="#414C51"/>
<path d="M381.143 227.605C380.124 230.697 378.787 233.953 377.049 237.433C357.093 278.327 304.243 298.951 255.961 298.951H255.855C201.055 298.92 152.811 274.215 134.855 237.433C132.999 233.628 131.605 230.098 130.568 226.774C156.105 221.444 189.73 212.116 202.543 206.505C219.486 199.082 237.668 195.371 255.855 195.359C274.111 195.346 292.374 199.057 309.374 206.505C321.324 211.741 354.855 221.626 381.143 227.605V227.605Z" fill="#2BB65E"/>
<path d="M381.143 227.605C380.124 230.697 378.787 233.953 377.049 237.433C357.093 278.327 304.243 298.951 255.961 298.951H255.855V195.359C274.111 195.346 292.374 199.057 309.374 206.505C321.324 211.741 354.855 221.626 381.143 227.605V227.605Z" fill="#008F61"/>
</svg>
