<svg width="512" height="512" viewBox="0 0 512 512" fill="none" xmlns="http://www.w3.org/2000/svg">
<path d="M413.807 206.721C410.382 210.796 406.219 210.065 400.457 210.065C408.375 230.297 419.244 269.361 403.894 305.213C402.15 309.288 397.8 311.582 393.45 310.719L382.763 308.601C381.282 325.589 374.507 356.453 345.775 373.685C343.157 375.254 339.944 375.454 337.15 374.216L326.082 369.316C311.994 391.279 283.825 406.293 259.262 415.412C257.112 416.21 254.778 416.177 252.737 415.412C228.175 406.299 200.005 391.279 185.918 369.316L174.849 374.216C172.055 375.454 168.843 375.254 166.224 373.685C137.493 356.453 130.718 325.589 129.236 308.601L118.549 310.719C114.199 311.582 109.849 309.288 108.105 305.213C92.7551 269.362 103.624 230.297 111.543 210.065C105.805 210.065 101.624 210.802 98.1926 206.721C96.4114 204.596 95.6614 201.796 96.1426 199.071C101.48 168.613 131.043 146.162 149.143 135.037L149.062 134.98C143.862 131.568 143.393 124.155 148.018 120.099C175.973 95.5354 205.248 94.0854 224.88 97.1979C238.743 99.3917 249.78 104.111 255.861 107.18C255.911 107.205 255.955 107.224 255.999 107.249C256.043 107.224 256.086 107.205 256.136 107.18C262.218 104.111 273.255 99.3917 287.118 97.1979C306.749 94.0854 336.025 95.5354 363.981 120.099C368.268 123.862 368.562 131.087 362.856 135.037C380.956 146.163 410.519 168.614 415.857 199.071C416.338 201.796 415.588 204.596 413.807 206.721V206.721Z" fill="#FF5600"/>
<path d="M413.807 206.721C410.382 210.796 406.219 210.065 400.457 210.065C408.375 230.297 419.244 269.361 403.894 305.213C402.15 309.288 397.8 311.582 393.45 310.719L382.763 308.601C381.282 325.589 374.507 356.453 345.775 373.685C343.156 375.254 339.944 375.454 337.15 374.216L326.081 369.316C311.994 391.279 283.825 406.293 259.262 415.412C258.168 415.818 257.012 416.012 255.862 415.999V107.18C255.912 107.205 255.956 107.224 256 107.249C256.043 107.224 256.087 107.205 256.137 107.18C262.218 104.111 273.256 99.3917 287.118 97.1979C306.75 94.0854 336.025 95.5354 363.982 120.099C368.269 123.862 368.563 131.087 362.857 135.037C380.957 146.163 410.52 168.614 415.857 199.071C416.338 201.796 415.588 204.596 413.807 206.721V206.721Z" fill="#FF1200"/>
<path d="M214.661 186.563C205.726 192.473 199.293 203.006 195.843 212.483C193.65 218.446 186.34 220.501 181.368 216.714L168.824 207.17C147.528 190.938 158.729 156.324 185.986 156.324C197.627 156.324 203.094 162.092 215.168 171.287C220.293 175.192 220.035 183.008 214.661 186.563Z" fill="#FFB22A"/>
<path d="M343.181 207.164L330.631 216.715C325.466 220.647 318.04 218.153 316.131 212.421C311.487 200.439 305.162 191.745 297.337 186.564C291.963 183.008 291.705 175.192 296.831 171.288C308.947 162.057 314.396 156.325 326.012 156.325C334.937 156.325 343.15 160.394 348.556 167.494C358.053 179.976 355.598 197.703 343.181 207.164V207.164Z" fill="#F09B00"/>
<path d="M333.287 257.761C328.25 272.556 320.512 284.575 315.393 292.525C312.5 297.019 311.893 297.776 311.893 299.482C311.893 327.647 291.251 350.332 265.24 354.762C262.182 355.282 255.862 348.357 255.862 348.357C255.862 348.357 249.643 355.284 246.487 354.746C220.043 350.277 199.831 327.201 199.831 299.494C199.831 297.762 199.231 297.044 196.337 292.537C191.231 284.599 183.512 272.617 178.468 257.861C171.793 238.329 172.343 221.415 178.237 205.671C193.193 167.106 224.407 154.962 255.869 165.369C255.913 165.356 255.957 165.344 256 165.325C263.557 162.85 280.813 158.837 298.432 166.087C313.988 172.494 325.788 185.813 333.488 205.671C339.681 221.654 339.618 239.179 333.287 257.761V257.761Z" fill="#FFD18B"/>
<path d="M333.287 257.761C328.25 272.556 320.512 284.575 315.393 292.525C312.5 297.019 311.893 297.776 311.893 299.482C311.893 327.647 291.251 350.333 265.24 354.762C262.181 355.283 255.862 348.357 255.862 348.357L255.868 165.369C255.912 165.357 255.956 165.344 256 165.325C263.556 162.85 280.812 158.838 298.431 166.088C313.987 172.494 325.787 185.814 333.487 205.671C339.681 221.654 339.618 239.179 333.287 257.761Z" fill="#FFB22A"/>
<path d="M221.84 249.748C227.018 249.748 231.215 245.551 231.215 240.373C231.215 235.195 227.018 230.998 221.84 230.998C216.663 230.998 212.465 235.195 212.465 240.373C212.465 245.551 216.663 249.748 221.84 249.748Z" fill="#525E63"/>
<path d="M289.883 249.748C295.06 249.748 299.258 245.551 299.258 240.373C299.258 235.195 295.06 230.998 289.883 230.998C284.705 230.998 280.508 235.195 280.508 240.373C280.508 245.551 284.705 249.748 289.883 249.748Z" fill="#414C51"/>
<path d="M275.118 300.651C272.268 303.494 268.905 305.626 265.236 306.97V354.747C262.16 355.271 259.038 355.534 255.861 355.534C252.749 355.534 249.611 355.278 246.486 354.747V306.97C242.818 305.626 239.455 303.495 236.605 300.651C232.943 296.988 232.936 291.056 236.599 287.388C240.255 283.725 246.193 283.725 249.855 287.381C251.518 289.044 253.693 289.875 255.861 289.863C258.159 289.863 260.296 288.953 261.868 287.381C265.53 283.725 271.468 283.725 275.124 287.388C278.787 291.056 278.78 296.988 275.118 300.651Z" fill="#D66823"/>
<path d="M275.118 300.651C272.268 303.494 268.905 305.626 265.236 306.97V354.747C262.16 355.271 259.038 355.534 255.861 355.534V289.863C258.159 289.863 260.296 288.953 261.868 287.381C265.53 283.725 271.468 283.725 275.124 287.388C278.786 291.056 278.78 296.988 275.118 300.651V300.651Z" fill="#9A4916"/>
</svg>
