<svg width="512" height="512" viewBox="0 0 512 512" fill="none" xmlns="http://www.w3.org/2000/svg">
<path d="M365.363 396.334C361.21 408.074 349.956 416 337.325 416H175.156C162.488 416 151.156 407.922 146.969 395.903C129.556 346.014 152.369 294.969 153.35 292.821C155.659 287.76 161.814 285.839 166.581 288.597C180.896 296.874 197.564 299.209 213.063 295.937C216.903 295.124 220.786 296.801 222.831 299.936C222.825 299.936 222.825 299.936 222.825 299.936C238.004 322.032 271.857 323.365 288.825 301.079C289.394 300.336 289.675 299.911 289.681 299.904C289.769 299.773 289.856 299.648 289.956 299.523C292.119 296.568 295.806 295.169 299.425 295.937C314.929 299.21 331.596 296.871 345.906 288.597C350.695 285.825 356.826 287.779 359.131 292.821C360.119 294.982 383.063 346.314 365.363 396.334V396.334Z" fill="#D66823"/>
<path d="M365.362 396.334C361.21 408.074 349.956 416 337.325 416H256.231V317.166C269.102 317.166 281.088 311.241 288.825 301.079C289.394 300.336 289.675 299.911 289.681 299.905C289.769 299.774 289.856 299.649 289.956 299.524C292.119 296.569 295.806 295.169 299.425 295.938C314.929 299.211 331.596 296.871 345.906 288.598C350.695 285.826 356.826 287.78 359.131 292.821C360.119 294.982 383.062 346.314 365.362 396.334V396.334Z" fill="#9A4916"/>
<path d="M329.469 404.431C329.469 404.549 329.469 409.903 329.462 416H183.019C183.012 409.459 183.012 404.574 183.012 404.431C183.012 364.612 192.956 327.804 210.287 303.453C213.515 298.919 217.961 299.517 222.537 299.517C222.637 299.655 222.737 299.792 222.831 299.936C222.825 299.936 222.825 299.936 222.825 299.936C237.88 321.853 271.736 323.524 288.825 301.079C289.394 300.336 289.675 299.911 289.681 299.905C289.769 299.774 289.856 299.649 289.956 299.524H294.556C297.587 299.524 300.437 300.992 302.194 303.466C319.525 327.811 329.469 364.612 329.469 404.431V404.431Z" fill="#FFD18B"/>
<path d="M302.194 303.466C319.525 327.811 329.469 364.612 329.469 404.431C329.469 404.549 329.469 409.903 329.462 416H256.244V317.166C269.104 317.166 281.092 311.236 288.825 301.079C289.394 300.336 289.675 299.911 289.681 299.905C289.769 299.774 289.856 299.649 289.956 299.524H294.556C297.587 299.524 300.437 300.992 302.194 303.466V303.466Z" fill="#FFB22A"/>
<path d="M397.488 231.768C397.488 282.324 352.736 322.437 301.419 315.297C290.088 328.435 273.825 335.9 256.244 335.9C238.669 335.9 222.4 328.441 211.069 315.297C192.531 317.877 173.594 314.236 157.419 304.946C157.338 304.902 157.263 304.859 157.188 304.815C131.163 289.772 115 261.779 115 231.768C115 199.09 133.725 170.091 162.069 156.11C165.619 154.361 169.881 155.023 172.725 157.766C193.4 177.7 221.238 195.941 246.9 208.942C252.648 211.869 259.619 211.975 265.575 208.948C291.556 195.661 318.863 177.907 339.756 157.766C342.6 155.024 346.863 154.362 350.413 156.111C378.738 170.085 397.488 199.059 397.488 231.768V231.768Z" fill="#9A4916"/>
<path d="M397.487 231.768C397.487 282.324 352.736 322.437 301.419 315.297C290.087 328.435 273.825 335.9 256.244 335.9V211.178C259.45 211.178 262.65 210.435 265.575 208.948C291.556 195.661 318.862 177.907 339.756 157.766C342.6 155.024 346.862 154.362 350.412 156.111C378.737 170.085 397.487 199.059 397.487 231.768V231.768Z" fill="#6E310B"/>
<path d="M199.381 278.621C173.531 278.621 152.506 257.606 152.506 231.768C152.506 205.937 173.531 184.915 199.381 184.915C204.934 184.915 207.188 185.444 209.181 186.789C232.265 202.336 235.487 201.521 238.225 205.543C259.138 236.388 237.006 278.621 199.381 278.621Z" fill="#F2E4E4"/>
<path d="M266.456 290.528C262.869 295.601 260.563 298.618 256.244 298.618C256.238 298.618 256.238 298.618 256.231 298.618C251.913 298.612 249.644 295.594 246.044 290.547C228.619 265.99 229.825 235.854 230.113 231.425L230.05 214.289C230.025 207.192 236.919 202.657 242.594 205.987C247.882 209.11 251.003 211.167 256.231 211.178C261.596 211.178 264.723 209.006 269.85 206.018C275.538 202.694 282.375 207.242 282.375 214.289V231.406C282.663 235.76 283.894 265.939 266.456 290.528V290.528Z" fill="#FFB22A"/>
<path d="M199.381 241.139C204.559 241.139 208.756 236.944 208.756 231.769C208.756 226.593 204.559 222.398 199.381 222.398C194.204 222.398 190.006 226.593 190.006 231.769C190.006 236.944 194.204 241.139 199.381 241.139Z" fill="#525E63"/>
<path d="M359.994 231.768C359.994 257.606 338.969 278.621 313.119 278.621C275.503 278.621 253.358 236.406 274.287 205.524C276.976 201.554 280.095 202.375 303.15 186.889C305.115 185.515 307.281 184.915 313.119 184.915C338.969 184.915 359.994 205.937 359.994 231.768V231.768Z" fill="#D8C5C5"/>
<path d="M266.456 290.528C262.869 295.601 260.562 298.618 256.244 298.618C256.237 298.618 256.237 298.618 256.231 298.618V211.178C261.596 211.178 264.722 209.006 269.85 206.018C275.537 202.694 282.375 207.242 282.375 214.289V231.406C282.662 235.76 283.894 265.939 266.456 290.528V290.528Z" fill="#F09B00"/>
<path d="M388.631 121.951C380.681 140.517 367.431 157.153 352.763 171.266C333.75 189.588 309.994 205.949 286.613 218.968C273.453 226.307 267.029 229.913 256.238 229.913C245.244 229.913 238.719 226.102 225.894 218.981C202.594 206.006 178.838 189.694 159.713 171.259C143.056 155.223 130.994 138.631 123.856 121.951C117.388 106.821 132.631 92.1531 146.05 96.9131C174.337 107.047 184.564 111.987 204.013 111.987H308.475C319.025 111.987 329.4 110.188 339.306 106.634C368.781 96.0762 366.725 96.7756 367.625 96.5762C382.325 93.4087 394.525 108.164 388.631 121.951V121.951Z" fill="#D66823"/>
<path d="M313.119 241.139C318.296 241.139 322.494 236.944 322.494 231.769C322.494 226.593 318.296 222.398 313.119 222.398C307.941 222.398 303.744 226.593 303.744 231.769C303.744 236.944 307.941 241.139 313.119 241.139Z" fill="#414C51"/>
<path d="M388.631 121.951C380.681 140.517 367.431 157.153 352.762 171.266C333.75 189.588 309.994 205.949 286.612 218.968C273.462 226.302 267.031 229.913 256.244 229.913V111.987H308.475C319.025 111.987 329.4 110.188 339.306 106.634C368.781 96.0762 366.725 96.7756 367.625 96.5762C382.325 93.4087 394.525 108.164 388.631 121.951V121.951Z" fill="#9A4916"/>
</svg>
